<svg id="Layer_1" data-name="Layer 1" xmlns="http://www.w3.org/2000/svg" xmlns:xlink="http://www.w3.org/1999/xlink" width="48" height="48" viewBox="0 0 48 48"><g id="OAR_Logo.psd" data-name="OAR Logo.psd"><image id="OAR_Logo" data-name="OAR Logo" width="735" height="527" transform="translate(1 1) scale(0.06)" xlink:href="favicon-481.png"/></g><path d="M19.8,39.3a5.1,5.1,0,0,1-.5,2.5,3.1,3.1,0,0,1-1.4,1.6,3.7,3.7,0,0,1-2.1.6,4.2,4.2,0,0,1-2.1-.6,4.4,4.4,0,0,1-1.4-1.6,6,6,0,0,1-.5-2.4v-.5a6,6,0,0,1,.5-2.4,3.9,3.9,0,0,1,1.4-1.7,4.6,4.6,0,0,1,2.1-.5,3.5,3.5,0,0,1,3.5,2.1,5.3,5.3,0,0,1,.5,2.5Zm-1.9-.4a3.7,3.7,0,0,0-.6-2.3,1.6,1.6,0,0,0-1.5-.7,1.6,1.6,0,0,0-1.5.7,3.7,3.7,0,0,0-.5,2.3v.4a3.9,3.9,0,0,0,.5,2.3,1.9,1.9,0,0,0,1.5.8,1.6,1.6,0,0,0,1.5-.8,3.7,3.7,0,0,0,.6-2.3Z" fill="#204980"/><path d="M26.4,41.9H23l-.6,1.9H20.3l3.5-9.4h1.8l3.6,9.4H27.1Zm-2.8-1.6h2.3l-1.2-3.6Z" fill="#204980"/><path d="M33.5,40.3H32v3.5H30V34.3h3.5a4,4,0,0,1,2.6.8,2.6,2.6,0,0,1,.9,2.1,2.7,2.7,0,0,1-.4,1.6,2.7,2.7,0,0,1-1.3,1l2.1,3.9H35.3ZM32,38.7h1.5a2.1,2.1,0,0,0,1.2-.3,1.8,1.8,0,0,0,.4-1.1,1.5,1.5,0,0,0-.4-1,1.5,1.5,0,0,0-1.2-.4H32Z" fill="#204980"/><path d="M5.9,46a1.4,1.4,0,0,1-.2.7,1,1,0,0,1-.4.5l-.6.2L4,47.2a1,1,0,0,1-.4-.5,1.4,1.4,0,0,1-.2-.7v-.2a1.9,1.9,0,0,1,.2-.7,1,1,0,0,1,.4-.5l.7-.2.6.2a1,1,0,0,1,.4.5,1.9,1.9,0,0,1,.2.7Zm-.6-.2a.8.8,0,0,0-.2-.6c-.1-.2-.2-.3-.4-.3a.5.5,0,0,0-.5.3.8.8,0,0,0-.2.6V46a1.4,1.4,0,0,0,.2.7l.5.2a.5.5,0,0,0,.4-.2,1.4,1.4,0,0,0,.2-.7Z" fill="#204980"/><path d="M7.5,45.7H7.3c-.2,0-.4.1-.4.3v1.4H6.3V45.2h.5v.3c.2-.2.3-.3.5-.3h.2Z" fill="#204980"/><path d="M8.4,47.4H7.8V44.3h.6Z" fill="#204980"/><path d="M9.8,47.4a.9.9,0,0,1-.7-.3,1,1,0,0,1-.3-.8h0a1.3,1.3,0,0,1,.1-.6l.3-.4h.6l.7.2a1.9,1.9,0,0,1,.2.8v.3H9.3l.2.3h.4c.2,0,.4,0,.5-.2l.3.3-.4.3Zm0-1.8H9.5c-.1.1-.1.2-.1.4h.7a.4.4,0,0,0-.1-.3Z" fill="#204980"/><path d="M12.3,47.4a.3.3,0,0,0-.1-.2l-.5.2-.5-.2a.4.4,0,0,1-.2-.4c0-.3,0-.5.2-.6l.7-.2h.3c0-.1,0-.2-.1-.2s-.1-.1-.2-.1-.2,0-.2.1-.1.1-.1.2H11c0-.2,0-.3.1-.4l.3-.2h.5c.3,0,.5,0,.6.2a.5.5,0,0,1,.3.5v1c0,.2,0,.3.1.4h-.6Zm-.5-.4H12a.2.2,0,0,0,.2-.2v-.3H12c-.3,0-.5.1-.5.3h0v.2Z" fill="#204980"/><path d="M13.7,45.2v.3a.6.6,0,0,1,.6-.3c.2,0,.4,0,.5.2s.1.3.1.6v1.4h-.5V46c0-.1-.1-.2-.1-.3h-.3l-.3.2v1.6h-.6V45.2Z" fill="#204980"/><path d="M16.6,46.8c0-.1,0-.2-.1-.2h-.3c-.5-.1-.8-.3-.8-.7s.1-.3.3-.4.3-.2.6-.2.5,0,.6.2a.5.5,0,0,1,.3.5h-.6c0-.1,0-.2-.1-.2s-.1-.1-.2-.1h-.2v.2c0,.1,0,.1.1.2h.6c.3.1.5.3.5.5a.5.5,0,0,1-.3.5.8.8,0,0,1-.6.2h-.5l-.3-.3a.4.4,0,0,1-.1-.3h.5v.2h.6Z" fill="#204980"/><path d="M20.2,46.8h-1l-.2.6h-.6l1-2.9H20l1.1,2.9h-.7Zm-.8-.5h.7l-.4-1.1Z" fill="#204980"/><path d="M21.7,45.2v.3a.6.6,0,0,1,.6-.3c.2,0,.4,0,.5.2s.1.3.1.6v1.4h-.5V46c0-.1-.1-.2-.1-.3h-.3l-.3.2v1.6h-.6V45.2Z" fill="#204980"/><path d="M23.5,44.7a.4.4,0,0,1,.1-.3H24a.4.4,0,0,1,.1.3v.2h-.4Zm.6,2.7h-.6V45.2h.6Z" fill="#204980"/><path d="M25.1,45.2v.3a.9.9,0,0,1,.6-.3.6.6,0,0,1,.6.3.7.7,0,0,1,.6-.3c.3,0,.4,0,.6.2s.1.3.1.6v1.4H27V45.7h-.3a.3.3,0,0,0-.3.3v1.5h-.6V46a.4.4,0,0,0-.1-.3h-.2a.5.5,0,0,0-.4.2v1.6h-.5V45.2Z" fill="#204980"/><path d="M29.3,47.4c0-.1,0-.2-.1-.2l-.5.2-.5-.2a.4.4,0,0,1-.2-.4.8.8,0,0,1,.2-.6A1.5,1.5,0,0,1,29,46h.2c0-.1,0-.2-.1-.2s-.1-.1-.2-.1-.2,0-.2.1-.1.1-.1.2H28c0-.2.1-.3.1-.4a.5.5,0,0,1,.4-.2h.4a.8.8,0,0,1,.7.2.8.8,0,0,1,.2.5v1c0,.2,0,.3.1.4h-.6Zm-.5-.4h.3v-.5H29c-.3,0-.4.1-.4.3h0v.2Z" fill="#204980"/><path d="M30.8,47.4h-.5V44.3h.5Z" fill="#204980"/><path d="M33.4,46.3H33v1.1h-.6V44.5h1c.4,0,.6,0,.8.2a.7.7,0,0,1,.3.6.7.7,0,0,1-.1.5c-.1.2-.2.3-.4.3l.6,1.2H34Zm-.4-.5h.8a.4.4,0,0,0,.1-.3c0-.1,0-.3-.1-.3H33Z" fill="#204980"/><path d="M35.9,47.4a1.1,1.1,0,0,1-.8-.3,1,1,0,0,1-.3-.8h0a1.4,1.4,0,0,1,.2-.6c0-.2.2-.3.3-.4h.5l.7.2a1.1,1.1,0,0,1,.3.8v.3H35.4c0,.1.1.2.2.3h.3c.3,0,.4,0,.6-.2l.2.3-.3.3Zm-.1-1.8h-.2a.5.5,0,0,0-.2.4h.8a.4.4,0,0,0-.1-.3Z" fill="#204980"/><path d="M38.3,46.8v-.2h-.4c-.5-.1-.7-.3-.7-.7s0-.3.2-.4a.7.7,0,0,1,.6-.2.8.8,0,0,1,.7.2.8.8,0,0,1,.2.5h-.6v-.2h-.5v.2c0,.1,0,.1.1.2h.7a.5.5,0,0,1,.4.5.8.8,0,0,1-.2.5l-.7.2h-.5l-.3-.3a.4.4,0,0,1-.1-.3h.5v.2h.7Z" fill="#204980"/><path d="M40.1,46.9c.1,0,.2,0,.2-.1s.1-.1.1-.2H41c0,.2-.1.3-.1.4l-.4.3h-.4a.8.8,0,0,1-.7-.3,1.1,1.1,0,0,1-.3-.8h0a1,1,0,0,1,.3-.8.8.8,0,0,1,.7-.3c.3,0,.5,0,.6.2a.9.9,0,0,1,.3.6h-.6a.4.4,0,0,0-.1-.3h-.2c-.2,0-.3.1-.3.2s-.1.2-.1.5h0a.7.7,0,0,0,.1.5C39.8,46.9,39.9,46.9,40.1,46.9Z" fill="#204980"/><path d="M42.6,47.1a.9.9,0,0,1-.6.3l-.5-.2a.8.8,0,0,1-.2-.6V45.2h.6v1.4a.3.3,0,0,0,.3.3c.2,0,.3,0,.4-.2V45.2h.5v2.2h-.5Z" fill="#204980"/><path d="M44.6,47.4a1,1,0,0,1-1.1-1.1h0a1.3,1.3,0,0,1,.1-.6.8.8,0,0,1,.4-.4h.5l.7.2a1.1,1.1,0,0,1,.2.8v.3H44.1a.4.4,0,0,0,.1.3h.4c.2,0,.4,0,.5-.2l.3.3-.4.3Zm-.1-1.8h-.3c-.1.1-.1.2-.1.4h.8c0-.1-.1-.2-.1-.3Z" fill="#204980"/></svg>