<svg id="Layer_1" data-name="Layer 1" xmlns="http://www.w3.org/2000/svg" xmlns:xlink="http://www.w3.org/1999/xlink" width="256" height="256" viewBox="0 0 256 256"><g id="OAR_Logo.psd" data-name="OAR Logo.psd"><image id="OAR_Logo" data-name="OAR Logo" width="735" height="527" transform="translate(1) scale(0.35)" xlink:href="favicon-2561.png"/></g><path d="M102.9,207.6a32.5,32.5,0,0,1-2.6,13.3,20.5,20.5,0,0,1-7.6,8.8,21.2,21.2,0,0,1-11.4,3.1,21.6,21.6,0,0,1-11.4-3,21.3,21.3,0,0,1-7.8-8.7A31.9,31.9,0,0,1,59.3,208v-2.5A30.7,30.7,0,0,1,62,192.2a20.4,20.4,0,0,1,7.7-8.9A21.5,21.5,0,0,1,81,180.2a20.7,20.7,0,0,1,11.4,3.1,19.6,19.6,0,0,1,7.7,8.8,29.1,29.1,0,0,1,2.8,13.2Zm-10.7-2.3c0-5.3-1-9.4-2.9-12.2a9.4,9.4,0,0,0-8.2-4.2,9.3,9.3,0,0,0-8.2,4.2c-1.9,2.7-2.9,6.8-2.9,12.1v2.5c0,5.2,1,9.3,2.9,12.2a9.6,9.6,0,0,0,8.3,4.3c3.6-.1,6.3-1.4,8.2-4.2s2.8-6.9,2.8-12.2Z" fill="#204980"/><path d="M138.8,221.4H120.3L116.8,232H105.6l18.9-51.2h9.8l19.3,51.1H142.4Zm-15.7-8.5h12.8l-6.5-19.2Z" fill="#204980"/><path d="M177.2,213.1h-8.4v18.7H158.4l-.2-51.2h19c6.1,0,10.7,1.3,14,4s5,6.5,5,11.4a14.5,14.5,0,0,1-9.1,14.4l11.1,20.9v.5H186.9Zm-8.4-8.5h8.5a9.1,9.1,0,0,0,6.2-2,7.5,7.5,0,0,0,2.1-5.6,8.1,8.1,0,0,0-2-5.7c-1.4-1.3-3.5-2-6.4-2h-8.4Z" fill="#204980"/><path d="M27.6,244a8.8,8.8,0,0,1-.9,4.1,6.7,6.7,0,0,1-2.3,2.7,6.8,6.8,0,0,1-3.5.9,6.4,6.4,0,0,1-3.4-.9,5.8,5.8,0,0,1-2.4-2.7,9.8,9.8,0,0,1-.9-4v-.8a8.7,8.7,0,0,1,.9-4,5.6,5.6,0,0,1,2.3-2.7,6.6,6.6,0,0,1,7,0,5.6,5.6,0,0,1,2.3,2.7,8.7,8.7,0,0,1,.9,4Zm-3.3-.7a6.3,6.3,0,0,0-.9-3.7,2.8,2.8,0,0,0-2.5-1.3,2.8,2.8,0,0,0-2.5,1.3,6.1,6.1,0,0,0-.9,3.7v.7a6.9,6.9,0,0,0,.9,3.8,3.1,3.1,0,0,0,5,0,6.3,6.3,0,0,0,.9-3.7Z" fill="#204980"/><path d="M36.2,242.8H35.1a2.3,2.3,0,0,0-2.3,1.2v7.6H29.7V239.9h2.9v1.4a2.8,2.8,0,0,1,2.6-1.6h1Z" fill="#204980"/><path d="M41,251.5H37.9V235H41Z" fill="#204980"/><path d="M48.9,251.7a5.5,5.5,0,0,1-5.8-5.7v-.3a8.3,8.3,0,0,1,.7-3.2,5.5,5.5,0,0,1,1.9-2.1,5.7,5.7,0,0,1,2.9-.7,4.7,4.7,0,0,1,3.7,1.5,6.1,6.1,0,0,1,1.4,4.2v1.3H46.3a2.6,2.6,0,0,0,.9,1.8,2.5,2.5,0,0,0,1.9.7,3.3,3.3,0,0,0,2.8-1.3l1.5,1.7a4.6,4.6,0,0,1-1.8,1.6A7.6,7.6,0,0,1,48.9,251.7Zm-.3-9.5a1.8,1.8,0,0,0-1.5.6,3,3,0,0,0-.8,1.8h4.3v-.3a2.5,2.5,0,0,0-.5-1.6A2.5,2.5,0,0,0,48.6,242.2Z" fill="#204980"/><path d="M62.2,251.5a1.7,1.7,0,0,1-.3-1,4.1,4.1,0,0,1-3,1.2,4,4,0,0,1-2.8-1,3.3,3.3,0,0,1-1.1-2.5,3.1,3.1,0,0,1,1.4-2.8,6.3,6.3,0,0,1,3.9-1h1.4v-.7a2,2,0,0,0-.4-1.3c-.2-.3-.7-.4-1.3-.4a2.1,2.1,0,0,0-1.2.3,1.4,1.4,0,0,0-.4,1.1H55.2a3.4,3.4,0,0,1,.7-1.9,3.7,3.7,0,0,1,1.7-1.3,5.5,5.5,0,0,1,2.6-.5,5.1,5.1,0,0,1,3.4,1,4.2,4.2,0,0,1,1.3,3.1v5a5.4,5.4,0,0,0,.4,2.5v.2Zm-2.6-2.2a2.8,2.8,0,0,0,1.3-.3c.4-.2.7-.4.8-.8v-2H60.6c-1.6,0-2.4.6-2.5,1.6v.2a1.3,1.3,0,0,0,.4,1A1.8,1.8,0,0,0,59.6,249.3Z" fill="#204980"/><path d="M70.1,239.9v1.3a4,4,0,0,1,3.3-1.5,3.4,3.4,0,0,1,2.8,1,5.4,5.4,0,0,1,.9,3.3v7.5H74.1v-7.4a2.1,2.1,0,0,0-.4-1.5,2,2,0,0,0-1.4-.4,2.2,2.2,0,0,0-2,1.1v8.2H67.2V239.9Z" fill="#204980"/><path d="M85.9,248.3a1,1,0,0,0-.6-.9l-1.8-.6c-2.8-.6-4.2-1.7-4.2-3.5a3.5,3.5,0,0,1,1.3-2.6,5.3,5.3,0,0,1,3.4-1,5.4,5.4,0,0,1,3.5,1,3.3,3.3,0,0,1,1.4,2.7H85.7a1.5,1.5,0,0,0-.4-1.1,1.7,1.7,0,0,0-1.3-.4,1.9,1.9,0,0,0-1.2.3,1.4,1.4,0,0,0-.5.9,1.1,1.1,0,0,0,.5.9,4.3,4.3,0,0,0,1.7.5l1.9.5a3.2,3.2,0,0,1,2.5,3.2,3,3,0,0,1-1.4,2.5,5.6,5.6,0,0,1-3.5,1,7.1,7.1,0,0,1-2.6-.5,5.1,5.1,0,0,1-1.8-1.4,3.6,3.6,0,0,1-.6-2h2.9a1.8,1.8,0,0,0,.6,1.3,2.5,2.5,0,0,0,1.6.4,2.3,2.3,0,0,0,1.3-.3C85.7,248.9,85.9,248.7,85.9,248.3Z" fill="#204980"/><path d="M105.4,248.3H99.7l-1,3.2H95.2l5.9-15.6h3l5.8,15.6h-3.4Zm-4.8-2.6h3.9l-1.9-5.9Z" fill="#204980"/><path d="M113.5,239.9v1.3a4,4,0,0,1,3.3-1.5,3.4,3.4,0,0,1,2.8,1,5.4,5.4,0,0,1,.9,3.3v7.5h-3.1v-7.4a2.1,2.1,0,0,0-.4-1.5,2,2,0,0,0-1.4-.4,2.2,2.2,0,0,0-2,1.1v8.2h-3.1V239.9Z" fill="#204980"/><path d="M122.9,236.9a1.7,1.7,0,0,1,.5-1.2,1.7,1.7,0,0,1,1.3-.4,2,2,0,0,1,1.3.4,1.6,1.6,0,0,1,.4,1.2,1.3,1.3,0,0,1-.5,1.1,1.7,1.7,0,0,1-1.2.5,1.9,1.9,0,0,1-1.3-.5A1.6,1.6,0,0,1,122.9,236.9Zm3.3,14.6h-3.1V239.9h3.1Z" fill="#204980"/><path d="M131.7,239.9v1.3a4,4,0,0,1,3.3-1.5,3.1,3.1,0,0,1,3.1,1.7,4.1,4.1,0,0,1,3.5-1.7,3.2,3.2,0,0,1,2.8,1.1,4.5,4.5,0,0,1,1,3.3v7.4h-3.2v-7.4a2.8,2.8,0,0,0-.3-1.5,2,2,0,0,0-1.4-.4,1.8,1.8,0,0,0-1.9,1.3v8h-3.1v-7.4a2.7,2.7,0,0,0-.4-1.5,1.8,1.8,0,0,0-1.4-.4,2,2,0,0,0-1.9,1.1v8.2h-3.1V239.9Z" fill="#204980"/><path d="M154.6,251.5a1.7,1.7,0,0,1-.3-1,4.1,4.1,0,0,1-3,1.2,4,4,0,0,1-2.8-1,3.3,3.3,0,0,1-1.1-2.5,3.1,3.1,0,0,1,1.4-2.8,6.3,6.3,0,0,1,3.9-1h1.4v-.7a2,2,0,0,0-.4-1.3c-.2-.3-.7-.4-1.3-.4a2.1,2.1,0,0,0-1.2.3,1.4,1.4,0,0,0-.5,1.1h-3.1a3.4,3.4,0,0,1,.7-1.9,3.7,3.7,0,0,1,1.7-1.3,5.5,5.5,0,0,1,2.6-.5,5.1,5.1,0,0,1,3.4,1,4.2,4.2,0,0,1,1.3,3.1v5a5.4,5.4,0,0,0,.4,2.5v.2Zm-2.6-2.2a2.8,2.8,0,0,0,1.3-.3c.4-.2.7-.4.8-.8v-2H153c-1.6,0-2.4.6-2.5,1.6v.2a1.3,1.3,0,0,0,.4,1A1.8,1.8,0,0,0,152,249.3Z" fill="#204980"/><path d="M162.9,251.5h-3.1V235h3.1Z" fill="#204980"/><path d="M176.9,245.8h-2.5v5.7h-3.2V235.9H177a6.6,6.6,0,0,1,4.2,1.2,4.3,4.3,0,0,1,1.5,3.5,5.7,5.7,0,0,1-.6,2.7A6,6,0,0,1,180,245l3.3,6.3v.2h-3.4Zm-2.5-2.6H177a2.5,2.5,0,0,0,1.9-.7,2.2,2.2,0,0,0,.6-1.7,2.4,2.4,0,0,0-.6-1.7,2.7,2.7,0,0,0-1.9-.6h-2.6Z" fill="#204980"/><path d="M190.3,251.7a5.4,5.4,0,0,1-4.1-1.6,5.3,5.3,0,0,1-1.6-4.1v-.3a6.8,6.8,0,0,1,.7-3.2,4.3,4.3,0,0,1,1.9-2.1,5.7,5.7,0,0,1,6.6.8,6,6,0,0,1,1.3,4.2v1.3h-7.4a2.6,2.6,0,0,0,.9,1.8,2.6,2.6,0,0,0,1.9.7,3.5,3.5,0,0,0,2.9-1.3l1.5,1.7a4.9,4.9,0,0,1-1.9,1.6A7.6,7.6,0,0,1,190.3,251.7Zm-.3-9.5a2,2,0,0,0-1.5.6,3,3,0,0,0-.7,1.8h4.3v-.3a2.1,2.1,0,0,0-.6-1.6A2.3,2.3,0,0,0,190,242.2Z" fill="#204980"/><path d="M203.2,248.3a1,1,0,0,0-.6-.9l-1.8-.6c-2.8-.6-4.1-1.7-4.1-3.5a3.4,3.4,0,0,1,1.2-2.6,5.3,5.3,0,0,1,3.4-1,5.2,5.2,0,0,1,3.5,1,3.3,3.3,0,0,1,1.4,2.7h-3.1a1.6,1.6,0,0,0-.5-1.1,1.7,1.7,0,0,0-1.3-.4,2.1,2.1,0,0,0-1.2.3,1.4,1.4,0,0,0-.5.9,1.1,1.1,0,0,0,.5.9,4.9,4.9,0,0,0,1.7.5l1.9.5a3.2,3.2,0,0,1,2.5,3.2,3,3,0,0,1-1.4,2.5,5.4,5.4,0,0,1-3.5,1,7.1,7.1,0,0,1-2.6-.5,6.2,6.2,0,0,1-1.8-1.4,3.6,3.6,0,0,1-.6-2h2.9a2.3,2.3,0,0,0,.6,1.3,2.5,2.5,0,0,0,1.6.4,2.3,2.3,0,0,0,1.3-.3C203,248.9,203.2,248.7,203.2,248.3Z" fill="#204980"/><path d="M213,249.2a1.6,1.6,0,0,0,1.4-.5,1.4,1.4,0,0,0,.6-1.2h2.9a3.7,3.7,0,0,1-.6,2.1,4.6,4.6,0,0,1-1.8,1.6,6,6,0,0,1-2.4.5,4.7,4.7,0,0,1-3.9-1.6,5.9,5.9,0,0,1-1.5-4.3v-.3a6.3,6.3,0,0,1,1.4-4.2,5.1,5.1,0,0,1,4-1.6,5.1,5.1,0,0,1,3.5,1.2,4.5,4.5,0,0,1,1.3,3.3H215a2,2,0,0,0-.6-1.5,2,2,0,0,0-1.4-.5,1.6,1.6,0,0,0-1.6.8,4,4,0,0,0-.6,2.5v.3a4.3,4.3,0,0,0,.6,2.6A1.6,1.6,0,0,0,213,249.2Z" fill="#204980"/><path d="M226.6,250.3a3.8,3.8,0,0,1-3.1,1.4,3.5,3.5,0,0,1-2.9-1.1,4.1,4.1,0,0,1-1-3.1v-7.6h3.1v7.5c0,1.2.5,1.8,1.7,1.8a2.2,2.2,0,0,0,2.1-1.1v-8.2h3.1v11.6h-2.9Z" fill="#204980"/><path d="M237.3,251.7a5.5,5.5,0,0,1-5.7-5.7v-.3a8.3,8.3,0,0,1,.6-3.2,5.2,5.2,0,0,1,4.8-2.8,4.7,4.7,0,0,1,3.7,1.5,5.6,5.6,0,0,1,1.4,4.2v1.3h-7.4a2.6,2.6,0,0,0,.9,1.8,2.6,2.6,0,0,0,1.9.7,3.2,3.2,0,0,0,2.8-1.3l1.6,1.7a4.9,4.9,0,0,1-1.9,1.6A7.6,7.6,0,0,1,237.3,251.7Zm-.3-9.5a2,2,0,0,0-1.5.6,3,3,0,0,0-.8,1.8h4.4v-.3a2.6,2.6,0,0,0-.6-1.6A2.5,2.5,0,0,0,237,242.2Z" fill="#204980"/></svg>