<svg id="Layer_1" data-name="Layer 1" xmlns="http://www.w3.org/2000/svg" xmlns:xlink="http://www.w3.org/1999/xlink" width="64" height="64" viewBox="0 0 64 64"><g id="OAR_Logo.psd" data-name="OAR Logo.psd"><image id="OAR_Logo" data-name="OAR Logo" width="735" height="527" transform="translate(1 1) scale(0.08)" xlink:href="favicon-641.png"/></g><path d="M25.9,51.6a7.9,7.9,0,0,1-.6,3.2,4.8,4.8,0,0,1-1.9,2.1,5,5,0,0,1-2.7.8,6.1,6.1,0,0,1-2.8-.7A5.2,5.2,0,0,1,16,54.8a7.4,7.4,0,0,1-.7-3.1V51a6.6,6.6,0,0,1,.7-3.2,4.3,4.3,0,0,1,1.9-2.1,5,5,0,0,1,2.7-.8,6.4,6.4,0,0,1,2.8.7,5.9,5.9,0,0,1,1.9,2.2,7.9,7.9,0,0,1,.6,3.2ZM23.3,51a5.1,5.1,0,0,0-.7-3,2.3,2.3,0,0,0-2-1,2.6,2.6,0,0,0-2,1,6,6,0,0,0-.7,3v.6a5.6,5.6,0,0,0,.7,2.9,2.5,2.5,0,0,0,2.1,1.1,2.3,2.3,0,0,0,1.9-1,5.1,5.1,0,0,0,.7-3Z" fill="#204980"/><path d="M34.6,54.9H30.1l-.8,2.6H26.6L31.2,45h2.3l4.7,12.5H35.5Zm-3.8-2.1h3.1l-1.5-4.6Z" fill="#204980"/><path d="M44,52.9H41.9v4.6H39.4V45H44a4.9,4.9,0,0,1,3.4,1,3.4,3.4,0,0,1,1.2,2.8,3.7,3.7,0,0,1-.6,2.1,3.5,3.5,0,0,1-1.6,1.3l2.7,5.1H46.3Zm-2.1-2.1H44a1.8,1.8,0,0,0,1.5-.5A1.5,1.5,0,0,0,46,49a1.6,1.6,0,0,0-.5-1.4,1.7,1.7,0,0,0-1.5-.5H41.9Z" fill="#204980"/><path d="M7.5,60.3a3,3,0,0,1-.2,1,1.7,1.7,0,0,1-.6.6,1.4,1.4,0,0,1-.9.3,1.1,1.1,0,0,1-.8-.3,1.7,1.7,0,0,1-.6-.6,3,3,0,0,1-.2-1v-.2a3,3,0,0,1,.2-1c.2-.2.3-.5.6-.6a1.1,1.1,0,0,1,.8-.2,1.3,1.3,0,0,1,.9.2c.2.1.4.4.6.6a3,3,0,0,1,.2,1Zm-.8-.2a1.2,1.2,0,0,0-.3-.9.6.6,0,0,0-.6-.3.9.9,0,0,0-.6.3,2,2,0,0,0-.2.9v.2a2,2,0,0,0,.2.9.9.9,0,0,0,.6.3.6.6,0,0,0,.6-.3,1.2,1.2,0,0,0,.3-.9Z" fill="#204980"/><path d="M9.6,60H9.3a.6.6,0,0,0-.6.3v1.8H8V59.3h.7v.3c.2-.2.4-.4.6-.4h.3Z" fill="#204980"/><path d="M10.7,62.1H10v-4h.7Z" fill="#204980"/><path d="M12.6,62.2a1.8,1.8,0,0,1-1-.4,1.8,1.8,0,0,1-.4-1h0a1.9,1.9,0,0,1,.2-.8,1.2,1.2,0,0,1,.5-.5l.7-.2a1.2,1.2,0,0,1,.9.4,1.5,1.5,0,0,1,.3,1v.3H12a.8.8,0,0,0,.2.5h.5a.9.9,0,0,0,.7-.3l.3.4a.8.8,0,0,1-.4.4Zm0-2.4a.7.7,0,0,0-.6.6h1.1a.5.5,0,0,0-.2-.4Z" fill="#204980"/><path d="M15.9,62.1c-.1-.1-.1-.1-.1-.2a1,1,0,0,1-1.4,0,.6.6,0,0,1-.3-.6.9.9,0,0,1,.3-.7l1-.2h.4v-.2c0-.1-.1-.2-.1-.3H15a.3.3,0,0,0-.1.2h-.7a.6.6,0,0,1,.1-.4,1,1,0,0,1,.5-.4h.6a1.1,1.1,0,0,1,.8.3.9.9,0,0,1,.3.7v1.3c0,.2.1.4.1.6h-.7Zm-.7-.5c.2,0,.3,0,.3-.1l.3-.2v-.5h-.3c-.4,0-.6.2-.6.4h0a.3.3,0,0,0,.1.2Z" fill="#204980"/><path d="M17.8,59.3v.3a1.2,1.2,0,0,1,.8-.4.9.9,0,0,1,.7.3,1.5,1.5,0,0,1,.2.8v1.8h-.7V60.3c0-.2-.1-.3-.1-.4h-.4a.5.5,0,0,0-.5.3v2h-.7V59.3Z" fill="#204980"/><path d="M21.6,61.3v-.2H21c-.6-.2-1-.5-1-.9a.7.7,0,0,1,.3-.6,1.4,1.4,0,0,1,.9-.3,1.1,1.1,0,0,1,.8.3.7.7,0,0,1,.3.6h-.7c0-.1,0-.2-.1-.2h-.3c-.2,0-.3,0-.3.1s-.1.1-.1.2,0,.1.1.2h.9c.4.2.6.4.6.8a.8.8,0,0,1-.4.6,1.1,1.1,0,0,1-.8.3l-.7-.2-.4-.3c-.1-.2-.2-.3-.2-.5h.8a.4.4,0,0,0,.1.3h.7C21.6,61.5,21.6,61.4,21.6,61.3Z" fill="#204980"/><path d="M26.4,61.3H25l-.3.8h-.8l1.4-3.8H26l1.5,3.8h-.9Zm-1.2-.6h1l-.5-1.4Z" fill="#204980"/><path d="M28.3,59.3v.3a1,1,0,0,1,.8-.4.6.6,0,0,1,.6.3,1,1,0,0,1,.3.8v1.8h-.8V60.3c0-.2,0-.3-.1-.4h-.3a.5.5,0,0,0-.5.3v2h-.8V59.3Z" fill="#204980"/><path d="M30.6,58.5a.3.3,0,0,1,.1-.2h.7a.3.3,0,0,1,.1.2.4.4,0,0,1-.1.3h-.7A.4.4,0,0,1,30.6,58.5Zm.8,3.6h-.7V59.3h.7Z" fill="#204980"/><path d="M32.8,59.3v.3a1.2,1.2,0,0,1,.8-.4.7.7,0,0,1,.7.5,1.1,1.1,0,0,1,.9-.5.9.9,0,0,1,.7.3,1.5,1.5,0,0,1,.2.8v1.8h-.8V60.3c0-.2,0-.3-.1-.3s-.1-.2-.3-.2a.5.5,0,0,0-.5.4v1.9h-.7V60.3c0-.2,0-.3-.1-.3l-.3-.2a.5.5,0,0,0-.5.3v2h-.7V59.3Z" fill="#204980"/><path d="M38.3,62.1c0-.1,0-.1-.1-.2a.8.8,0,0,1-.7.3.9.9,0,0,1-.7-.3.8.8,0,0,1-.2-.6.9.9,0,0,1,.3-.7,2.2,2.2,0,0,1,1-.2h.3v-.2a.4.4,0,0,0-.1-.3h-.6c-.1,0-.1.1-.1.2h-.8a.8.8,0,0,1,.2-.4.8.8,0,0,1,.4-.4h.6a1.2,1.2,0,0,1,.9.3.9.9,0,0,1,.3.7v1.3a1.3,1.3,0,0,0,.1.6h-.8Zm-.6-.5H38a.2.2,0,0,0,.2-.2v-.5h-.3c-.4,0-.6.2-.6.4h0a.3.3,0,0,1,.1.2Z" fill="#204980"/><path d="M40.3,62.1h-.7v-4h.7Z" fill="#204980"/><path d="M43.7,60.7h-.6v1.4h-.8V58.3h1.5a1.7,1.7,0,0,1,1,.3,1.3,1.3,0,0,1,.4.9,1.4,1.4,0,0,1-.2.6,1,1,0,0,1-.5.4l.8,1.6h-.8Zm-.6-.6h.7a.6.6,0,0,0,0-1.2h-.7Z" fill="#204980"/><path d="M47,62.2a1.5,1.5,0,0,1-1-.4,1.3,1.3,0,0,1-.4-1h0a1.9,1.9,0,0,1,.2-.8,1,1,0,0,1,.4-.5l.7-.2a1,1,0,0,1,.9.4,1.2,1.2,0,0,1,.4,1v.3H46.4a.8.8,0,0,0,.2.5h.5a.7.7,0,0,0,.6-.3l.4.4a1,1,0,0,1-.5.4Zm-.1-2.4c-.1,0-.3.1-.3.2a.5.5,0,0,0-.2.4h1c0-.2,0-.3-.1-.4A.5.5,0,0,0,46.9,59.8Z" fill="#204980"/><path d="M50.1,61.3v-.2h-.5c-.6-.2-1-.5-1-.9a.7.7,0,0,1,.3-.6,1.4,1.4,0,0,1,.9-.3,1.1,1.1,0,0,1,.8.3.7.7,0,0,1,.3.6h-.7c0-.1,0-.2-.1-.2h-.3c-.2,0-.3,0-.3.1s-.1.1-.1.2,0,.1.1.2h.9c.4.2.6.4.6.8a.8.8,0,0,1-.4.6,1.1,1.1,0,0,1-.8.3L49,62l-.4-.3c-.1-.2-.2-.3-.2-.5h.8a.4.4,0,0,0,.1.3H50C50.1,61.5,50.1,61.4,50.1,61.3Z" fill="#204980"/><path d="M52.5,61.5h.4a.4.4,0,0,0,.1-.3h.7a1.4,1.4,0,0,1-.2.6l-.4.3-.6.2a1.3,1.3,0,0,1-.9-.4,1.4,1.4,0,0,1-.4-1.1h0a1.4,1.4,0,0,1,.4-1.1,1.3,1.3,0,0,1,.9-.4,1.2,1.2,0,0,1,.9.3,1.1,1.1,0,0,1,.3.8H53c0-.1-.1-.2-.1-.3a.5.5,0,0,0-.8,0,1.5,1.5,0,0,0-.1.7h0a1.5,1.5,0,0,0,.1.7Z" fill="#204980"/><path d="M55.8,61.8a1,1,0,0,1-.8.4.6.6,0,0,1-.6-.3,1,1,0,0,1-.3-.8V59.3h.8v1.8c0,.3.1.4.4.4s.4,0,.5-.2v-2h.7v2.8h-.7Z" fill="#204980"/><path d="M58.4,62.2a1.8,1.8,0,0,1-1-.4,1.3,1.3,0,0,1-.4-1h0a1.9,1.9,0,0,1,.2-.8,1,1,0,0,1,.4-.5l.7-.2a1,1,0,0,1,.9.4,1.2,1.2,0,0,1,.4,1v.3H57.8a.8.8,0,0,0,.2.5h.5a.6.6,0,0,0,.6-.3l.4.4-.4.4Zm-.1-2.4L58,60a.5.5,0,0,0-.2.4h1c0-.2,0-.3-.1-.4A.5.5,0,0,0,58.3,59.8Z" fill="#204980"/></svg>