<svg id="Layer_1" data-name="Layer 1" xmlns="http://www.w3.org/2000/svg" xmlns:xlink="http://www.w3.org/1999/xlink" width="196" height="196" viewBox="0 0 196 196"><g id="OAR_Logo.psd" data-name="OAR Logo.psd"><image id="OAR_Logo" data-name="OAR Logo" width="735" height="527" transform="translate(2) scale(0.26)" xlink:href="favicon-1961.png"/></g><path d="M78.7,156.3a22.6,22.6,0,0,1-1.9,10,15,15,0,0,1-5.8,6.6,15.4,15.4,0,0,1-8.6,2.4,16.4,16.4,0,0,1-8.5-2.3,14.4,14.4,0,0,1-5.8-6.6,23.2,23.2,0,0,1-2.2-9.8v-1.9a24.1,24.1,0,0,1,2-10,15.9,15.9,0,0,1,5.8-6.7,16.5,16.5,0,0,1,8.6-2.3,15.5,15.5,0,0,1,14.4,8.9,24.1,24.1,0,0,1,2,10Zm-8-1.7c0-4.1-.8-7.1-2.2-9.2a6.9,6.9,0,0,0-6.2-3.1,7.1,7.1,0,0,0-6.2,3.1c-1.4,2.1-2.1,5.1-2.1,9.1v1.9c0,3.9.7,7,2.2,9.1a6.9,6.9,0,0,0,6.2,3.3,7.2,7.2,0,0,0,6.2-3.2c1.4-2.1,2.1-5.1,2.1-9.1Z" fill="#204980"/><path d="M105.7,166.7H91.8l-2.6,8H80.8L95,136.1h7.3l14.6,38.5h-8.5Zm-11.8-6.4h9.7l-4.9-14.5Z" fill="#204980"/><path d="M134.7,160.4h-6.3v14.1h-7.9V136h14.3q6.8,0,10.5,3c2.5,2,3.7,4.9,3.8,8.6a12.4,12.4,0,0,1-1.7,6.6,13,13,0,0,1-5.2,4.2l8.4,15.7v.4H142Zm-6.3-6.4h6.4a6.5,6.5,0,0,0,4.6-1.5,5.7,5.7,0,0,0,1.6-4.2,5.8,5.8,0,0,0-1.5-4.3,6.5,6.5,0,0,0-4.8-1.6h-6.4Z" fill="#204980"/><path d="M22,183.7a7,7,0,0,1-.6,3,4.6,4.6,0,0,1-1.8,2.1,5.3,5.3,0,0,1-2.6.7,5.6,5.6,0,0,1-2.6-.7,4.9,4.9,0,0,1-1.8-2,7.3,7.3,0,0,1-.6-3v-.6a7.5,7.5,0,0,1,.6-3.1,4.4,4.4,0,0,1,1.8-2,4.4,4.4,0,0,1,2.6-.7,4.6,4.6,0,0,1,2.6.7,4.4,4.4,0,0,1,1.8,2,7.5,7.5,0,0,1,.6,3.1Zm-2.5-.5a5.7,5.7,0,0,0-.6-2.9,2.3,2.3,0,0,0-1.9-.9,2.2,2.2,0,0,0-1.9.9,5.5,5.5,0,0,0-.7,2.8v.6a4.7,4.7,0,0,0,.7,2.8,2.1,2.1,0,0,0,1.9,1,2.2,2.2,0,0,0,1.9-1,5.1,5.1,0,0,0,.6-2.8Z" fill="#204980"/><path d="M28.5,182.8h-.8a1.8,1.8,0,0,0-1.8.9v5.7H23.6v-8.7h2.2v1a2.1,2.1,0,0,1,1.9-1.2h.8Z" fill="#204980"/><path d="M32.1,189.3H29.8V176.9h2.3Z" fill="#204980"/><path d="M38.1,189.5a4.4,4.4,0,0,1-3.2-1.2,4.2,4.2,0,0,1-1.2-3.2v-.2a5.6,5.6,0,0,1,.5-2.3,3.9,3.9,0,0,1,1.5-1.6,3.7,3.7,0,0,1,2.1-.6,3.8,3.8,0,0,1,2.8,1.1,4.8,4.8,0,0,1,1.1,3.2v1H36.1a2.3,2.3,0,0,0,.7,1.4,2.2,2.2,0,0,0,1.4.5,2.4,2.4,0,0,0,2.1-1l1.2,1.3a4.1,4.1,0,0,1-1.4,1.2A6.5,6.5,0,0,1,38.1,189.5Zm-.3-7.2a1.2,1.2,0,0,0-1.1.5,2.3,2.3,0,0,0-.6,1.3h3.3v-.2a1.7,1.7,0,0,0-.5-1.2A1.2,1.2,0,0,0,37.8,182.3Z" fill="#204980"/><path d="M48.1,189.3c-.2-.2-.2-.5-.3-.8a2.6,2.6,0,0,1-2.2,1,3,3,0,0,1-2.1-.8,2.3,2.3,0,0,1-.9-1.8,2.5,2.5,0,0,1,1.1-2.2,5.1,5.1,0,0,1,3-.7h1v-.5a1.5,1.5,0,0,0-.3-1,1.3,1.3,0,0,0-1-.4,1.2,1.2,0,0,0-.9.3,1.1,1.1,0,0,0-.3.8H42.8a2.4,2.4,0,0,1,.5-1.4,3.2,3.2,0,0,1,1.3-1,4.2,4.2,0,0,1,2-.4,3.9,3.9,0,0,1,2.5.8,2.8,2.8,0,0,1,1,2.3v3.8a5,5,0,0,0,.3,1.9H48.1Zm-2-1.6,1-.2a1.3,1.3,0,0,0,.6-.7v-1.5h-.8c-1.2,0-1.8.4-1.9,1.2v.2a.9.9,0,0,0,.3.7A1.1,1.1,0,0,0,46.1,187.7Z" fill="#204980"/><path d="M54,180.6v1a3,3,0,0,1,2.5-1.2,2.9,2.9,0,0,1,2.1.8,4.4,4.4,0,0,1,.7,2.5v5.6H57v-5.6a1.8,1.8,0,0,0-.3-1.1,1.8,1.8,0,0,0-2.5.5v6.2H51.8v-8.7Z" fill="#204980"/><path d="M65.9,186.9a1,1,0,0,0-.4-.7l-1.4-.4c-2.1-.5-3.1-1.3-3.1-2.7a2.3,2.3,0,0,1,.9-1.9,4.2,4.2,0,0,1,2.6-.8,4,4,0,0,1,2.6.8,2.3,2.3,0,0,1,1,2H65.8a1.1,1.1,0,0,0-.3-.8,1.5,1.5,0,0,0-1-.3l-1,.2a.9.9,0,0,0-.3.7.5.5,0,0,0,.4.6,2.4,2.4,0,0,0,1.2.4l1.5.4a2.6,2.6,0,0,1,1.9,2.4,2.3,2.3,0,0,1-1.1,1.9,4.2,4.2,0,0,1-2.6.8,5.9,5.9,0,0,1-2-.4,3.5,3.5,0,0,1-1.3-1.1,2.7,2.7,0,0,1-.5-1.5h2.2a1.2,1.2,0,0,0,.5,1,1.8,1.8,0,0,0,1.1.3,2.2,2.2,0,0,0,1-.2A.8.8,0,0,0,65.9,186.9Z" fill="#204980"/><path d="M80.6,186.9H76.3l-.8,2.4H72.9l4.4-11.8h2.3L84,189.3H81.4Zm-3.6-2h2.9l-1.5-4.4Z" fill="#204980"/><path d="M86.7,180.6v1a2.9,2.9,0,0,1,2.5-1.2,2.5,2.5,0,0,1,2,.8,3.7,3.7,0,0,1,.7,2.5v5.6H89.7v-5.6a1.8,1.8,0,0,0-.3-1.1,1.6,1.6,0,0,0-1.1-.3,1.8,1.8,0,0,0-1.5.8v6.2H84.5v-8.7Z" fill="#204980"/><path d="M93.8,178.3a1.4,1.4,0,0,1,.3-.9,1.8,1.8,0,0,1,2,0,1.5,1.5,0,0,1,0,1.8,1.7,1.7,0,0,1-1,.3,1.2,1.2,0,0,1-.9-.3A1.1,1.1,0,0,1,93.8,178.3Zm2.5,11H93.9v-8.7h2.4Z" fill="#204980"/><path d="M100.4,180.6v.9a3.1,3.1,0,0,1,2.5-1.1,2.3,2.3,0,0,1,2.3,1.3,2.9,2.9,0,0,1,2.6-1.3,2.6,2.6,0,0,1,2.1.8,3.7,3.7,0,0,1,.7,2.5v5.6h-2.3v-5.6a1.8,1.8,0,0,0-.3-1.1,1.3,1.3,0,0,0-1-.3,1.5,1.5,0,0,0-1.5,1v6h-2.3v-5.6a1.8,1.8,0,0,0-.3-1.1,1.3,1.3,0,0,0-1-.3,1.6,1.6,0,0,0-1.5.8v6.2H98.2v-8.7Z" fill="#204980"/><path d="M117.6,189.3a1.9,1.9,0,0,1-.2-.8,2.7,2.7,0,0,1-2.2,1,3.3,3.3,0,0,1-2.2-.8,2.5,2.5,0,0,1-.8-1.8,2.5,2.5,0,0,1,1-2.2,5.1,5.1,0,0,1,3-.7h1.1v-.5a1.5,1.5,0,0,0-.3-1,1.5,1.5,0,0,0-1-.4,1.2,1.2,0,0,0-.9.3.9.9,0,0,0-.4.8h-2.3a2.3,2.3,0,0,1,.4-1.4,3.6,3.6,0,0,1,1.4-1,3.8,3.8,0,0,1,1.9-.4,4.2,4.2,0,0,1,2.6.8,3,3,0,0,1,.9,2.3v3.8a3.6,3.6,0,0,0,.4,1.9h-2.4Zm-1.9-1.6.9-.2a2.3,2.3,0,0,0,.7-.7v-1.5h-.9c-1.2,0-1.8.4-1.9,1.2v.2a.9.9,0,0,0,.3.7A1.2,1.2,0,0,0,115.7,187.7Z" fill="#204980"/><path d="M123.9,189.3h-2.4V176.9h2.4Z" fill="#204980"/><path d="M134.4,185h-1.9v4.3h-2.4V177.5h4.4a4.7,4.7,0,0,1,3.2,1,3.3,3.3,0,0,1,1.1,2.6,3.9,3.9,0,0,1-.5,2,4.2,4.2,0,0,1-1.6,1.3l2.5,4.8h-2.6Zm-1.9-2h2a2.1,2.1,0,0,0,1.4-.4,1.9,1.9,0,0,0,.5-1.3,1.7,1.7,0,0,0-.5-1.3,2,2,0,0,0-1.4-.5h-2Z" fill="#204980"/><path d="M144.5,189.5a4.1,4.1,0,0,1-3.1-1.2,4.2,4.2,0,0,1-1.2-3.2v-.2a4.3,4.3,0,0,1,.5-2.3,3.2,3.2,0,0,1,1.4-1.6,4.3,4.3,0,0,1,2.2-.6,3.8,3.8,0,0,1,2.8,1.1,4.7,4.7,0,0,1,1,3.2v1h-5.6a3.1,3.1,0,0,0,.7,1.4,2.5,2.5,0,0,0,1.5.5,2.4,2.4,0,0,0,2.1-1l1.1,1.3a3.3,3.3,0,0,1-1.4,1.2A6.5,6.5,0,0,1,144.5,189.5Zm-.2-7.2a1.3,1.3,0,0,0-1.2.5,2.2,2.2,0,0,0-.5,1.3h3.2v-.2a1.6,1.6,0,0,0-.4-1.2A1.4,1.4,0,0,0,144.3,182.3Z" fill="#204980"/><path d="M154.2,186.9a1,1,0,0,0-.4-.7l-1.4-.4c-2.1-.5-3.1-1.3-3.1-2.7a2.3,2.3,0,0,1,.9-1.9,4.2,4.2,0,0,1,2.6-.8,4,4,0,0,1,2.6.8,2.3,2.3,0,0,1,1,2h-2.3a1.1,1.1,0,0,0-.3-.8,1.5,1.5,0,0,0-1-.3l-1,.2a.9.9,0,0,0-.3.7.5.5,0,0,0,.4.6,2.8,2.8,0,0,0,1.2.4l1.5.4a2.6,2.6,0,0,1,1.9,2.4,2.3,2.3,0,0,1-1.1,1.9,4.2,4.2,0,0,1-2.6.8,5.9,5.9,0,0,1-2-.4,3.5,3.5,0,0,1-1.3-1.1,2.7,2.7,0,0,1-.5-1.5h2.2a1.2,1.2,0,0,0,.5,1,1.8,1.8,0,0,0,1.1.3,2.2,2.2,0,0,0,1-.2A.8.8,0,0,0,154.2,186.9Z" fill="#204980"/><path d="M161.6,187.6a1.5,1.5,0,0,0,1.1-.4,1.3,1.3,0,0,0,.4-.9h2.2a3,3,0,0,1-.5,1.6,3.7,3.7,0,0,1-1.3,1.2,5.8,5.8,0,0,1-1.9.4,3.7,3.7,0,0,1-2.9-1.2,4.9,4.9,0,0,1-1.1-3.3v-.2a4.8,4.8,0,0,1,1.1-3.2,3.7,3.7,0,0,1,2.9-1.2,4,4,0,0,1,2.7.9,3.7,3.7,0,0,1,1,2.5h-2.2a2.1,2.1,0,0,0-.4-1.1,1.5,1.5,0,0,0-1.1-.4,1.2,1.2,0,0,0-1.2.6,3.1,3.1,0,0,0-.5,1.9v.3a4.1,4.1,0,0,0,.4,1.9A1.5,1.5,0,0,0,161.6,187.6Z" fill="#204980"/><path d="M171.8,188.4a2.8,2.8,0,0,1-2.4,1.1,2.9,2.9,0,0,1-2.1-.8,4.3,4.3,0,0,1-.8-2.4v-5.7h2.4v5.6c0,.9.4,1.4,1.2,1.4a1.9,1.9,0,0,0,1.7-.8v-6.2h2.3v8.7h-2.2Z" fill="#204980"/><path d="M179.9,189.5a4.1,4.1,0,0,1-3.1-1.2,4.3,4.3,0,0,1-1.3-3.2v-.2a4.4,4.4,0,0,1,.6-2.3,3.2,3.2,0,0,1,1.4-1.6,3.7,3.7,0,0,1,2.1-.6,4,4,0,0,1,2.9,1.1,5.3,5.3,0,0,1,1,3.2v1h-5.6a2.3,2.3,0,0,0,.7,1.4,2.4,2.4,0,0,0,1.4.5,2.7,2.7,0,0,0,2.2-1l1.1,1.3a3.3,3.3,0,0,1-1.4,1.2A6.5,6.5,0,0,1,179.9,189.5Zm-.3-7.2a1.3,1.3,0,0,0-1.1.5,2.3,2.3,0,0,0-.6,1.3h3.3v-.2a2.1,2.1,0,0,0-.4-1.2A1.6,1.6,0,0,0,179.6,182.3Z" fill="#204980"/></svg>