<svg id="Layer_1" data-name="Layer 1" xmlns="http://www.w3.org/2000/svg" xmlns:xlink="http://www.w3.org/1999/xlink" width="16" height="16" viewBox="0 0 16 16"><image width="539" height="400" transform="translate(0.5 0.4) scale(0.03)" xlink:href="C:%5CUsers%5Cktuck%5COneDrive%5CPictures%5CScreenshots%5CScreenshot%20(809).png"/><path d="M6.4,13.8a1.9,1.9,0,0,1-.2.8,1,1,0,0,1-.5.6l-.7.2-.8-.2a1,1,0,0,1-.5-.6,1.9,1.9,0,0,1-.2-.8v-.2a1.9,1.9,0,0,1,.2-.8,1,1,0,0,1,.5-.6l.7-.2.8.2a1,1,0,0,1,.5.6,1.9,1.9,0,0,1,.2.8Zm-.7-.2a1.9,1.9,0,0,0-.2-.8l-.6-.2c-.2,0-.4,0-.5.2a1.9,1.9,0,0,0-.2.8v.2a1.9,1.9,0,0,0,.2.8.6.6,0,0,0,.6.3.5.5,0,0,0,.5-.3,1.9,1.9,0,0,0,.2-.8Z" fill="#204980"/><path d="M8.7,14.7H7.5l-.2.7H6.5L7.8,12h.6l1.3,3.4H8.9Zm-1-.6h.8l-.4-1.2Z" fill="#204980"/><path d="M11.2,14.2h-.5v1.2H10V12h1.2a1.2,1.2,0,0,1,.9.3.9.9,0,0,1,.3.7c0,.3,0,.5-.1.6a1,1,0,0,1-.5.4l.8,1.3h-.8Zm-.5-.6h.9a.5.5,0,0,0,0-.8h-.9Z" fill="#204980"/></svg>