<svg id="Layer_1" data-name="Layer 1" xmlns="http://www.w3.org/2000/svg" xmlns:xlink="http://www.w3.org/1999/xlink" width="32" height="32" viewBox="0 0 32 32"><image width="539" height="400" transform="scale(0.06)" xlink:href="C:%5CUsers%5Cktuck%5COneDrive%5CPictures%5CScreenshots%5CScreenshot%20(809).png"/><path d="M12.5,27.9a4.8,4.8,0,0,1-.4,1.8A3.2,3.2,0,0,1,11,30.9a2.8,2.8,0,0,1-1.6.5,2.5,2.5,0,0,1-1.5-.5,2.5,2.5,0,0,1-1.1-1.2,3.4,3.4,0,0,1-.4-1.8v-.3a3.8,3.8,0,0,1,.4-1.9,2.9,2.9,0,0,1,1-1.2A3,3,0,0,1,9.4,24a3,3,0,0,1,1.6.5,3.2,3.2,0,0,1,1.1,1.2,4.8,4.8,0,0,1,.4,1.8ZM11,27.5a3.9,3.9,0,0,0-.4-1.7,1.7,1.7,0,0,0-1.2-.5,1.4,1.4,0,0,0-1.1.5,2.9,2.9,0,0,0-.4,1.7v.4a2.9,2.9,0,0,0,.4,1.7,1.3,1.3,0,0,0,1.1.6,1.4,1.4,0,0,0,1.2-.6,3.9,3.9,0,0,0,.4-1.7Z" fill="#204980"/><path d="M17.4,29.8H14.9l-.5,1.5H12.8l2.7-7.2h1.3l2.7,7.2H17.9Zm-2.1-1.2H17l-.9-2.7Z" fill="#204980"/><path d="M22.8,28.7H21.6v2.6H20.1V24.1h2.7a2.7,2.7,0,0,1,1.9.6,1.9,1.9,0,0,1,.7,1.6,2.1,2.1,0,0,1-.3,1.2,2.1,2.1,0,0,1-1,.8l1.6,2.9H24.1Zm-1.2-1.2h1.2a1,1,0,0,0,.8-.3,1.2,1.2,0,0,0,.4-.8,1.1,1.1,0,0,0-.3-.8,1.2,1.2,0,0,0-.9-.3H21.6Z" fill="#204980"/></svg>